<svg width="381" height="91" viewBox="0 0 381 91" fill="none" xmlns="http://www.w3.org/2000/svg">
<path d="M0 90.8333V0H21.6907L54.2212 42.9721L66.6981 62.0856H68.1913L67.2401 43.7796V0H87.5703V90.8222H65.8796L32.3978 47.4408L20.8722 30.3626H19.5117L20.3302 47.0315V90.8222H0V90.8333Z" fill="#0F3557"/>
<path d="M98.4209 90.8333V0H175.284V18.306H118.751V36.0701H173.249V54.2323H118.751V72.5383H175.284V90.8443H98.4209V90.8333Z" fill="#0F3557"/>
<path d="M184.509 90.8333V0H234.671C257.037 0 269.779 9.89963 269.779 27.2433C269.779 42.0209 261.24 50.8365 244.161 52.4625V53.5465C252.291 55.7145 255.411 60.0504 258.806 66.4215L271.958 90.8222H248.376L235.899 67.229C232.238 60.1831 228.853 57.8714 218.279 57.8714H204.862V90.8111H184.531L184.509 90.8333ZM204.839 42.5739H234.527C244.15 42.5739 248.486 39.864 248.486 30.3736C248.486 21.4252 244.15 18.306 234.527 18.306H204.839V42.5739Z" fill="#0F3557"/>
<path d="M272.212 90.8332L311.933 0.0109863H340.946L380.942 90.8332H357.626L349.087 70.7685H303.67L294.998 90.8332H272.223H272.212ZM311.534 52.4624H341.222L332.683 32.6742L327.119 18.5714H325.626L320.062 32.6742L311.523 52.4624H311.534Z" fill="#0F3557"/>
</svg>
